<?xml version="1.0" encoding="UTF-8" standalone="no"?>
<!DOCTYPE svg PUBLIC "-//W3C//DTD SVG 20010904//EN"
              "http://www.w3.org/TR/2001/REC-SVG-20010904/DTD/svg10.dtd">

<svg xmlns="http://www.w3.org/2000/svg"
     width="12.5in" height="13.0556in"
     viewBox="0 0 900 940">
  <path id="Auswahl"
        fill="white" stroke="white" stroke-width="1"
        d="M 141.00,0.11
           C 141.00,0.11 182.00,0.11 182.00,0.11
             182.00,0.11 258.00,0.11 258.00,0.11
             258.00,0.11 490.00,0.11 490.00,0.11
             490.00,0.11 502.00,0.91 502.00,0.91
             523.41,2.41 542.90,7.34 562.00,17.49
             605.94,40.84 632.28,83.13 637.17,132.00
             637.17,132.00 638.00,141.00 638.00,141.00
             638.00,141.00 638.00,165.00 638.00,165.00
             638.00,165.00 638.00,178.00 638.00,178.00
             637.92,194.64 630.77,210.83 618.00,221.56
             580.34,253.20 523.08,226.56 523.00,177.00
             523.00,177.00 522.32,139.00 522.32,139.00
             520.04,129.06 511.76,119.83 502.00,116.77
             497.11,115.24 493.05,115.01 488.00,115.00
             488.00,115.00 202.00,115.00 202.00,115.00
             202.00,115.00 149.00,115.00 149.00,115.00
             129.92,115.09 116.03,127.61 116.00,147.00
             116.00,147.00 116.00,659.00 116.00,659.00
             116.00,659.00 116.00,781.00 116.00,781.00
             116.03,802.08 131.02,812.97 151.00,813.00
             151.00,813.00 437.00,813.00 437.00,813.00
             437.00,813.00 477.00,813.00 477.00,813.00
             484.92,813.00 494.51,813.65 502.00,811.22
             516.79,806.40 522.98,793.55 523.00,779.00
             523.02,767.86 522.05,750.24 524.75,740.00
             531.41,714.85 555.26,694.81 582.00,696.51
             589.38,696.98 595.05,697.64 602.00,700.45
             607.14,702.53 611.64,705.24 616.00,708.67
             641.60,728.80 638.34,756.99 638.00,786.00
             638.00,786.00 635.41,809.00 635.41,809.00
             625.49,867.99 577.76,914.90 519.00,925.39
             519.00,925.39 502.00,927.09 502.00,927.09
             502.00,927.09 490.00,928.00 490.00,928.00
             490.00,928.00 269.00,928.00 269.00,928.00
             269.00,928.00 147.00,928.00 147.00,928.00
             147.00,928.00 137.00,927.09 137.00,927.09
             81.82,923.30 34.80,891.18 12.72,840.00
             6.23,824.95 1.03,805.44 1.00,789.00
             1.00,789.00 1.00,139.00 1.00,139.00
             1.07,92.48 32.09,43.16 72.00,20.34
             83.88,13.54 102.57,6.15 116.00,3.45
             116.00,3.45 130.00,1.17 130.00,1.17
             130.00,1.17 141.00,0.11 141.00,0.11 Z
           M 702.00,406.00
           C 702.00,406.00 667.00,371.00 667.00,371.00
             657.46,361.46 649.02,354.58 643.31,342.00
             632.03,317.15 639.93,285.45 663.00,270.10
             674.32,262.57 685.78,260.85 699.00,261.00
             721.95,261.27 731.79,273.15 746.91,287.83
             746.91,287.83 799.00,340.00 799.00,340.00
             799.00,340.00 864.00,405.00 864.00,405.00
             883.63,424.63 899.35,436.01 899.00,466.00
             898.67,493.54 877.92,510.08 860.00,528.00
             860.00,528.00 797.42,590.28 797.42,590.28
             797.42,590.28 759.17,628.58 759.17,628.58
             744.86,642.31 733.00,658.65 713.00,664.25
             705.43,666.38 699.72,666.09 692.00,666.00
             684.76,665.91 676.46,663.47 670.00,660.24
             641.46,645.97 632.21,611.01 645.32,583.00
             650.11,572.76 659.13,564.87 667.00,557.00
             667.00,557.00 702.00,522.00 702.00,522.00
             694.59,520.20 674.72,521.00 666.00,521.00
             666.00,521.00 597.00,521.00 597.00,521.00
             597.00,521.00 376.00,521.00 376.00,521.00
             368.55,520.99 361.91,520.09 355.00,517.13
             309.54,497.62 308.20,432.89 353.00,411.89
             360.68,408.29 368.58,407.01 377.00,407.00
             377.00,407.00 598.00,407.00 598.00,407.00
             598.00,407.00 666.00,407.00 666.00,407.00
             674.72,407.00 694.59,407.80 702.00,406.00 Z" />
</svg>
