<?xml version="1.0" encoding="UTF-8" standalone="no"?>
<!DOCTYPE svg PUBLIC "-//W3C//DTD SVG 20010904//EN"
              "http://www.w3.org/TR/2001/REC-SVG-20010904/DTD/svg10.dtd">

<svg xmlns="http://www.w3.org/2000/svg"
     width="180.6mm" height="180.6mm"
     viewBox="0 0 512 512">
  <path id="Auswahl"
        fill="white" stroke="white" stroke-width="1"
        d="M 103.00,103.00
           C 103.00,112.25 104.84,124.92 97.89,131.89
             90.82,138.99 78.03,138.69 71.64,130.82
             68.06,126.42 68.01,122.33 68.00,117.00
             68.00,117.00 68.00,103.00 68.00,103.00
             68.03,86.33 77.13,72.50 94.00,68.68
             98.77,67.60 112.38,67.97 118.00,68.00
             138.10,68.10 141.60,88.22 131.89,97.89
             124.92,104.84 112.25,103.00 103.00,103.00 Z
           M 182.00,68.65
           C 182.00,68.65 220.00,68.00 220.00,68.00
             224.45,68.02 228.13,68.07 231.98,70.70
             240.69,76.63 241.84,91.42 233.81,98.47
             228.89,102.80 224.15,102.99 218.00,103.00
             218.00,103.00 192.00,103.00 192.00,103.00
             187.13,102.99 183.44,103.03 179.00,100.59
             166.95,93.94 166.38,75.20 182.00,68.65 Z
           M 285.00,68.53
           C 285.00,68.53 322.00,68.00 322.00,68.00
             326.74,68.01 329.88,67.78 334.00,70.65
             343.47,77.25 344.79,90.96 335.90,98.61
             331.06,102.77 326.00,102.99 320.00,103.00
             320.00,103.00 294.00,103.00 294.00,103.00
             289.01,102.99 285.52,103.09 281.01,100.47
             269.08,93.52 269.66,73.45 285.00,68.53 Z
           M 409.00,103.00
           C 401.85,103.00 388.86,104.09 383.00,100.28
             371.23,92.60 372.91,74.65 385.00,69.36
             389.98,67.19 403.04,67.99 409.00,68.00
             428.33,68.03 443.76,81.04 444.00,101.00
             444.14,113.46 447.30,131.59 432.00,136.20
             429.79,136.87 427.30,137.06 425.00,136.90
             406.53,135.61 409.00,116.05 409.00,103.00 Z
           M 82.00,170.50
           C 84.77,170.11 86.18,169.89 89.00,170.50
             104.11,173.95 103.00,187.01 103.00,199.00
             103.00,199.00 103.00,218.00 103.00,218.00
             102.99,227.28 100.62,236.61 90.00,238.66
             81.06,240.39 71.76,237.43 68.80,228.00
             67.66,224.37 68.00,217.06 68.00,213.00
             68.00,213.00 68.00,188.00 68.00,188.00
             68.13,178.58 72.80,172.74 82.00,170.50 Z
           M 423.00,170.53
           C 431.65,169.19 440.56,173.10 443.35,182.00
             444.30,185.02 444.00,192.50 444.00,196.00
             444.00,196.00 444.00,221.00 444.00,221.00
             443.90,229.11 440.72,236.61 432.00,238.78
             430.18,239.03 426.90,239.05 425.00,238.78
             405.16,238.00 409.00,214.67 409.00,201.00
             409.00,194.61 408.21,185.71 410.92,180.00
             413.59,174.39 417.28,172.24 423.00,170.53 Z
           M 266.00,238.14
           C 266.00,238.14 293.00,238.14 293.00,238.14
             293.00,238.14 341.00,238.14 341.00,238.14
             347.18,238.01 353.95,238.30 358.96,242.39
             365.72,247.92 364.42,253.86 374.01,262.91
             382.64,271.04 392.53,272.98 404.00,273.00
             409.27,273.01 429.36,272.51 433.00,273.65
             437.75,275.14 441.72,279.28 443.20,284.00
             444.10,286.89 444.00,290.01 444.00,293.00
             444.00,293.00 444.00,408.00 444.00,408.00
             444.00,420.50 447.61,438.85 432.00,443.36
             429.43,444.11 426.65,444.00 424.00,444.00
             424.00,444.00 229.00,444.00 229.00,444.00
             229.00,444.00 196.00,444.00 196.00,444.00
             191.33,444.00 184.09,444.59 180.00,442.55
             171.22,438.15 170.01,430.80 170.00,422.00
             170.00,422.00 170.00,293.00 170.00,293.00
             170.07,278.84 176.01,273.02 190.00,273.00
             190.00,273.00 211.00,273.00 211.00,273.00
             222.69,272.98 233.31,270.61 241.70,261.83
             247.57,255.68 250.76,245.50 256.04,241.65
             259.21,239.34 262.28,239.05 266.00,238.14 Z
           M 79.00,273.65
           C 82.06,273.02 83.86,272.89 87.00,273.04
             107.08,274.01 103.00,298.21 103.00,312.00
             103.00,323.92 104.61,337.01 90.00,341.21
             81.82,343.56 73.25,339.58 69.45,332.00
             67.37,327.83 68.00,319.81 68.00,315.00
             68.00,307.87 66.95,287.46 69.57,282.00
             71.66,277.65 74.69,275.46 79.00,273.65 Z
           M 298.00,291.29
           C 271.35,295.70 250.10,312.70 242.21,339.00
             231.78,373.75 251.33,411.55 286.00,422.66
             291.83,424.52 297.86,425.92 304.00,426.00
             315.28,426.13 324.63,425.09 335.00,420.22
             343.55,416.20 352.33,410.29 358.38,403.00
             386.27,369.38 378.07,318.00 338.00,297.97
             324.96,291.45 312.37,289.93 298.00,291.29 Z
           M 103.00,409.00
           C 110.15,409.00 123.14,407.91 129.00,411.72
             140.77,419.40 139.09,437.35 127.00,442.64
             122.02,444.81 108.96,444.01 103.00,444.00
             83.67,443.97 68.24,430.96 68.00,411.00
             67.86,398.54 64.70,380.41 80.00,375.80
             82.21,375.13 84.70,374.94 87.00,375.10
             105.47,376.39 103.00,395.95 103.00,409.00 Z" />
</svg>
